<?xml version="1.0" encoding="UTF-8" standalone="no"?>
<!-- Generator: Adobe Illustrator 15.0.2, SVG Export Plug-In . SVG Version: 6.00 Build 0)  -->

<svg
   xmlns:dc="http://purl.org/dc/elements/1.1/"
   xmlns:cc="http://creativecommons.org/ns#"
   xmlns:rdf="http://www.w3.org/1999/02/22-rdf-syntax-ns#"
   xmlns:svg="http://www.w3.org/2000/svg"
   xmlns="http://www.w3.org/2000/svg"
   xmlns:sodipodi="http://sodipodi.sourceforge.net/DTD/sodipodi-0.dtd"
   xmlns:inkscape="http://www.inkscape.org/namespaces/inkscape"
   version="1.1"
   id="Ebene_1"
   x="0px"
   y="0px"
   width="85.959px"
   height="63.567px"
   viewBox="6.757 121.232 85.959 63.567"
   enable-background="new 6.757 121.232 85.959 63.567"
   xml:space="preserve"
   inkscape:version="0.48.4 r9939"
   sodipodi:docname="bahemian-word-logo.svg"><metadata
   id="metadata3042"><rdf:RDF><cc:Work
       rdf:about=""><dc:format>image/svg+xml</dc:format><dc:type
         rdf:resource="http://purl.org/dc/dcmitype/StillImage" /></cc:Work></rdf:RDF></metadata><defs
   id="defs3040" /><sodipodi:namedview
   pagecolor="#ffffff"
   bordercolor="#666666"
   borderopacity="1"
   objecttolerance="10"
   gridtolerance="10"
   guidetolerance="10"
   inkscape:pageopacity="0"
   inkscape:pageshadow="2"
   inkscape:window-width="1920"
   inkscape:window-height="1017"
   id="namedview3038"
   showgrid="false"
   inkscape:zoom="13.057089"
   inkscape:cx="42.9795"
   inkscape:cy="31.783501"
   inkscape:window-x="-8"
   inkscape:window-y="-8"
   inkscape:window-maximized="1"
   inkscape:current-layer="Ebene_1" />
<g
   id="g3026"
   style="fill:#444444">
	<path
   d="M21.907,155.048c1.271-0.449,2.274-1.188,2.983-2.194c0.708-1.007,1.066-2.318,1.066-3.902   c0-1.381-0.416-2.588-1.235-3.591c-0.799-0.976-1.976-1.711-3.5-2.188c0.937-0.404,1.717-0.848,2.323-1.319   c0.634-0.493,1.152-1.122,1.544-1.87c0.393-0.752,0.592-1.647,0.592-2.662c0-1.229-0.28-2.249-0.833-3.031s-1.406-1.381-2.537-1.78   c-1.117-0.394-2.614-0.594-4.45-0.594H8.296v1.063l0.091,0.025c0.521,0.147,0.89,0.281,1.097,0.396   c0.203,0.112,0.36,0.258,0.481,0.442c0.121,0.183,0.21,0.45,0.266,0.797c0.057,0.353,0.084,0.928,0.084,1.714v14.928   c0,0.839-0.037,1.471-0.108,1.876c-0.069,0.384-0.216,0.683-0.438,0.888c-0.224,0.209-0.688,0.405-1.38,0.584l-0.094,0.023v1.067   h9.013C19.096,155.72,20.643,155.493,21.907,155.048z M20.615,141.24c-0.898,0.819-2.22,1.234-3.928,1.234h-2.895v-8.694   c0.365-0.021,0.874-0.043,1.482-0.063c0.708-0.023,1.288-0.035,1.723-0.035c0.713,0,1.384,0.066,1.993,0.196   c0.603,0.128,1.131,0.345,1.568,0.645c0.435,0.297,0.78,0.702,1.029,1.204c0.248,0.502,0.374,1.148,0.374,1.92   C21.963,139.215,21.51,140.424,20.615,141.24z M22.24,149.037c0,1.091-0.185,2.01-0.548,2.729   c-0.358,0.714-0.947,1.261-1.751,1.626c-0.813,0.37-1.977,0.56-3.46,0.56c-0.978,0-1.881-0.037-2.688-0.111v-9.596h2.549   c1.472,0,2.64,0.177,3.473,0.524c0.821,0.345,1.437,0.871,1.828,1.568C22.039,147.04,22.24,147.948,22.24,149.037z"
   id="path3028"
   style="fill:#444444" />
	<path
   d="M84.43,160.763l0.091,0.025c0.521,0.146,0.885,0.279,1.086,0.395c0.194,0.11,0.345,0.252,0.456,0.433   s0.189,0.447,0.231,0.795c0.046,0.36,0.068,0.941,0.068,1.728v3.624c0,1.688,0.023,3.589,0.068,5.653   c0.043,1.954,0.092,3.317,0.146,4.058h-0.01c-0.29-0.62-0.572-1.185-0.843-1.679c-0.271-0.502-0.615-1.096-1.046-1.816   l-8.525-14.219l-0.036-0.061h-1.261v-0.016H68.09c-0.036-0.003-0.07-0.011-0.106-0.011s-0.069,0.008-0.105,0.011H67.74v0.015   c-0.712,0.117-1.257,0.731-1.257,1.476c0,0.827,0.674,1.5,1.5,1.5c0.787,0,1.429-0.612,1.488-1.385l0.003-0.007   c0.008-0.02,0.194-0.444,0.697-0.475h0.502c0.486,0.142,0.837,0.269,1.033,0.377c0.197,0.108,0.359,0.258,0.481,0.443   c0.121,0.184,0.211,0.451,0.267,0.795c0.057,0.356,0.085,0.935,0.085,1.715v14.926c0,0.844-0.037,1.476-0.111,1.877   c-0.069,0.386-0.215,0.684-0.435,0.888c-0.219,0.202-0.668,0.394-1.326,0.567h-2.385c-0.475-0.122-0.855-0.304-1.126-0.544   c-0.285-0.252-0.533-0.608-0.737-1.063c-0.21-0.463-0.448-1.129-0.729-2.038l-5.865-18.958l-0.014-0.041v-0.068H51.09   c-0.036-0.003-0.07-0.011-0.106-0.011c-0.035,0-0.069,0.008-0.105,0.011h-0.167v0.018c-0.697,0.13-1.228,0.738-1.228,1.473   c0,0.827,0.674,1.5,1.5,1.5c0.803,0,1.452-0.633,1.492-1.425c0.04-0.084,0.229-0.414,0.682-0.44h1.638c0.063,0.03,1,0.483,1,1.485   c0,0.074,0.012,0.143,0.03,0.209l-6.157,16.104c-0.443,1.181-0.905,2.1-1.373,2.73c-0.442,0.597-0.965,0.949-1.553,1.059h-2.946   l-0.003-0.001c-0.558-0.166-0.842-0.292-0.983-0.368c-0.181-0.1-0.338-0.239-0.465-0.418c-0.128-0.18-0.229-0.461-0.303-0.838   c-0.078-0.384-0.116-0.985-0.116-1.842v-4.889c0-0.766,0.012-1.391,0.035-1.857c0.022-0.449,0.104-0.813,0.242-1.08   c0.132-0.261,0.334-0.456,0.6-0.579c0.279-0.13,0.68-0.24,1.226-0.341l0.104-0.019v-1.187l-4.341-0.166h-1.227v10.064   c0,1.014-0.048,1.731-0.143,2.134c-0.093,0.38-0.259,0.659-0.509,0.854c-0.252,0.196-0.685,0.375-1.283,0.529l-0.007,0.002h-3.58   c-0.483-0.129-0.847-0.258-1.065-0.385c-0.215-0.126-0.379-0.285-0.489-0.475c-0.111-0.19-0.193-0.459-0.241-0.801   c-0.052-0.349-0.078-0.91-0.078-1.673v-14.926c0-0.778,0.031-1.364,0.093-1.74c0.06-0.356,0.152-0.628,0.275-0.804   c0.12-0.174,0.28-0.316,0.491-0.437c0.207-0.115,0.551-0.233,1.006-0.351h4.613c0.064,0.03,1,0.483,1,1.485   c0,1.438,1.17,2.609,2.608,2.609c1.439,0,2.611-1.171,2.611-2.609c0-1.267-0.907-2.321-2.105-2.559v-0.052h-9.59v0.015h-5.026   l-6.569,16.563l-5.944-16.479l-0.03-0.083H8.228v1.065l0.091,0.025c0.52,0.146,0.888,0.279,1.096,0.396   c0.198,0.109,0.36,0.258,0.482,0.442c0.121,0.186,0.211,0.453,0.267,0.796c0.056,0.354,0.083,0.932,0.083,1.715v14.926   c0,0.842-0.037,1.475-0.11,1.877c-0.069,0.385-0.216,0.685-0.437,0.889c-0.223,0.208-0.686,0.403-1.378,0.583l-0.094,0.023v1.067   h6.548v-1.067l-0.093-0.023c-0.512-0.135-0.888-0.27-1.115-0.401c-0.217-0.126-0.377-0.281-0.49-0.473   c-0.11-0.189-0.191-0.458-0.242-0.802c-0.051-0.345-0.076-0.892-0.076-1.673v-6.313c0-1.927-0.026-3.838-0.078-5.683   c-0.048-1.722-0.1-2.96-0.154-3.686h0.07l6.32,17.296l0.029,0.082h2.157l6.833-17.102h0.071c-0.063,0.684-0.12,1.866-0.169,3.521   c-0.05,1.771-0.076,3.545-0.076,5.275v6.607c0,0.916-0.045,1.58-0.136,1.976c-0.086,0.378-0.241,0.653-0.476,0.846   c-0.236,0.195-0.679,0.372-1.313,0.526l-0.095,0.022v1.069h6.43v0.017h4.364v0.006h7.346v-0.006h3.298v-0.017h7.025v-1.079   l-0.107-0.017c-0.696-0.1-1.216-0.303-1.545-0.604c-0.323-0.298-0.486-0.777-0.486-1.427c0-0.351,0.045-0.742,0.135-1.165   c0.094-0.437,0.29-1.08,0.584-1.918l0.558-1.607h7.858l0.611,2.139c0.17,0.557,0.304,1.065,0.396,1.516   c0.089,0.44,0.134,0.858,0.134,1.243c0,0.393-0.064,0.706-0.191,0.933c-0.126,0.226-0.313,0.398-0.574,0.526   c-0.271,0.133-0.693,0.257-1.255,0.367l-0.102,0.021v1.073h7.036v0.017h4.006v-0.017h5.81v-1.067l-0.095-0.023   c-0.514-0.135-0.89-0.27-1.116-0.4c-0.216-0.126-0.38-0.285-0.488-0.475c-0.112-0.189-0.194-0.458-0.243-0.8   c-0.052-0.357-0.077-0.921-0.077-1.674v-3.521c0-2.334-0.018-4.665-0.052-6.931c-0.032-2.194-0.087-3.768-0.161-4.679h0.078   c0.207,0.421,0.429,0.847,0.678,1.298c0.251,0.46,0.67,1.178,1.278,2.196l9.647,16.178h2.354v-19.469   c0-0.829,0.034-1.432,0.102-1.789c0.066-0.35,0.161-0.612,0.281-0.779c0.119-0.166,0.279-0.305,0.476-0.41   c0.2-0.108,0.561-0.232,1.067-0.368l0.093-0.025v-1.066H84.43V160.763z M60.765,173.934h-6.869l3.747-10.599L60.765,173.934z"
   id="path3030"
   style="fill:#444444" />
	<path
   d="M30.147,139.605c1.091,0,1.99-0.807,2.15-1.854c0.401-1.112,0.949-1.99,1.644-2.589c0.828-0.705,1.919-1.063,3.243-1.063   c1.234,0,2.231,0.245,2.965,0.729c0.751,0.487,1.307,1.26,1.647,2.295c0.338,1.012,0.502,2.354,0.502,4.105v1.834l-0.239,0.013   c-4.671,0.211-8.213,0.965-10.529,2.238c-2.301,1.263-3.419,2.999-3.419,5.312c0,1.094,0.244,2.071,0.727,2.907   c0.479,0.828,1.182,1.481,2.084,1.94c0.912,0.462,1.979,0.696,3.17,0.696c1.354,0,2.66-0.299,3.883-0.889   c1.214-0.584,2.542-1.605,3.945-3.034l0.775-0.774l0.032,0.759l-0.123,3.547h6.21v-0.016h2.072v-0.042h6.691v-1.067l-0.095-0.023   c-0.517-0.136-0.893-0.271-1.115-0.401c-0.217-0.126-0.382-0.285-0.49-0.473c-0.113-0.193-0.194-0.463-0.242-0.801   c-0.052-0.345-0.077-0.907-0.077-1.674v-7.104h9.344v7.104c0,0.944-0.048,1.62-0.143,2.009c-0.09,0.37-0.252,0.647-0.48,0.826   c-0.239,0.185-0.672,0.356-1.284,0.514l-0.095,0.023v1.067h6.902v0.042h11.706v-0.042c0.99-0.049,1.916-0.209,2.754-0.49   c1.021-0.347,1.967-0.825,2.808-1.423c0.778-0.557,1.634-1.308,2.537-2.229c0.49-0.391,0.813-0.983,0.813-1.657   c0-1.172-0.953-2.125-2.125-2.125s-2.125,0.953-2.125,2.125c0,0.29,0.059,0.564,0.164,0.816c0.071,0.36,0.128,0.991-0.092,1.369   c-0.246,0.148-0.492,0.28-0.737,0.396c-1.094,0.51-2.341,0.768-3.706,0.768c-1.628,0-2.973-0.39-3.997-1.159   c-1.023-0.77-1.769-1.846-2.215-3.198c-0.438-1.331-0.657-2.988-0.657-4.929v-0.686h15.396l-0.005-0.129   c-0.063-2.006-0.272-3.673-0.628-4.952c-0.373-1.341-0.901-2.464-1.573-3.34c-0.664-0.866-1.566-1.563-2.684-2.065   c-1.12-0.505-2.501-0.761-4.104-0.761c-2.048,0-3.88,0.498-5.445,1.479c-1.564,0.979-2.787,2.395-3.635,4.201   c-0.854,1.819-1.286,3.947-1.286,6.324c0,3.854,0.845,6.797,2.509,8.752c0.644,0.757,1.416,1.365,2.31,1.83h-5.458l-0.037-0.01   c-0.44-0.112-0.768-0.221-0.971-0.319c-0.195-0.096-0.35-0.203-0.452-0.314c-0.105-0.118-0.196-0.271-0.271-0.455   c-0.076-0.194-0.132-0.453-0.164-0.771c-0.033-0.33-0.051-0.831-0.051-1.488v-14.927c0-0.929,0.045-1.599,0.135-1.991   c0.084-0.369,0.244-0.65,0.473-0.835c0.239-0.188,0.678-0.363,1.301-0.521l0.095-0.023v-1.066h-7.481v1.064l0.093,0.025   c0.658,0.179,1.102,0.361,1.314,0.545c0.21,0.177,0.361,0.439,0.452,0.782c0.095,0.352,0.143,1.03,0.143,2.021v5.984H55.56v-5.984   c0-0.786,0.031-1.371,0.094-1.739c0.061-0.359,0.151-0.631,0.272-0.803c0.119-0.172,0.285-0.318,0.493-0.437   c0.215-0.121,0.573-0.245,1.064-0.369l0.096-0.023v-1.066h-7.517v1.063l0.091,0.025c0.521,0.147,0.891,0.281,1.098,0.396   c0.201,0.112,0.362,0.262,0.48,0.442c0.121,0.183,0.21,0.451,0.267,0.797c0.057,0.355,0.085,0.932,0.085,1.714v14.927   c0,0.844-0.037,1.475-0.111,1.876c-0.069,0.387-0.216,0.685-0.438,0.89c-0.223,0.208-0.686,0.404-1.377,0.583l-0.038,0.01h-1.305   v-0.005l-0.091-0.026c-0.576-0.165-1.039-0.34-1.335-0.504c-0.363-0.21-0.639-0.46-0.819-0.74   c-0.178-0.281-0.311-0.646-0.403-1.109c-0.081-0.426-0.132-0.917-0.146-1.423c-0.021-0.495-0.024-1.321-0.024-2.58v-8.156   c0-2.095-0.241-3.677-0.718-4.703c-0.465-1.006-1.171-1.765-2.098-2.255c-0.938-0.492-2.212-0.742-3.785-0.742   c-1.042,0-2.097,0.109-3.137,0.324c-1.033,0.221-2.078,0.524-3.107,0.902c-0.963,0.353-2.207,0.917-3.694,1.68l-0.068,0.035v0.048   c-0.831,0.309-1.427,1.104-1.427,2.04C27.963,138.626,28.943,139.605,30.147,139.605z M42.299,144.579v3.719   c0,0.866-0.271,1.744-0.801,2.61c-0.519,0.861-1.258,1.584-2.2,2.146c-0.948,0.562-2.014,0.845-3.169,0.845   c-0.812,0-1.523-0.109-2.119-0.328c-0.616-0.217-1.136-0.62-1.546-1.199c-0.413-0.598-0.613-1.369-0.613-2.362   c0-1.806,0.881-3.178,2.618-4.076c1.679-0.867,4.228-1.321,7.574-1.352L42.299,144.579z M81.09,133.496   c1.163,0,2.121,0.319,2.848,0.951c0.71,0.615,1.253,1.518,1.613,2.679c0.347,1.134,0.573,2.604,0.671,4.373l0.013,0.258H75.033   l0.019-0.26c0.186-2.532,0.799-4.515,1.823-5.889C77.919,134.207,79.337,133.496,81.09,133.496z"
   id="path3032"
   style="fill:#444444" />
	<circle
   cx="80.694"
   cy="128.875"
   r="1.208"
   id="circle3034"
   style="fill:#444444" />
	<path
   d="M89.569,122.417c-1.333,0-2.417,1.084-2.417,2.417c0,1.332,1.084,2.416,2.417,2.416c1.332,0,2.416-1.084,2.416-2.416   C91.985,123.501,90.901,122.417,89.569,122.417z"
   id="path3036"
   style="fill:#444444" />
</g>
</svg>